PathFileType	3	(X/Y/Z)	D:\Jess\PFP\Labelled\PA11\20250805\SRRun01.trc
DataRate	CameraRate	NumFrames	NumMarkers	Units	OrigDataRate	OrigDataStartFrame	OrigNumFrames
250.0	250.0	4	33	mm	250.0	35312	2501
Frame#	Time	C7			T10			CLAV			LSHO			RSHO			LASIS			RASIS			LPSIS			RPSIS			LILCR			RILCR			LGTR			LTHI			LLTHI			LLEP			LPSH			LLSH			LDSH			LLMAL			LTOE			L5TH			LHEE			RGTR			RTHI			RLTHI			RLEP			RPSH			RLSH			RDSH			RLMAL			RTOE			R5TH			RHEE			
		X1	Y1	Z1	X2	Y2	Z2	X3	Y3	Z3	X4	Y4	Z4	X5	Y5	Z5	X6	Y6	Z6	X7	Y7	Z7	X8	Y8	Z8	X9	Y9	Z9	X10	Y10	Z10	X11	Y11	Z11	X12	Y12	Z12	X13	Y13	Z13	X14	Y14	Z14	X15	Y15	Z15	X16	Y16	Z16	X17	Y17	Z17	X18	Y18	Z18	X19	Y19	Z19	X20	Y20	Z20	X21	Y21	Z21	X22	Y22	Z22	X23	Y23	Z23	X24	Y24	Z24	X25	Y25	Z25	X26	Y26	Z26	X27	Y27	Z27	X28	Y28	Z28	X29	Y29	Z29	X30	Y30	Z30	X31	Y31	Z31	X32	Y32	Z32	X33	Y33	Z33	

313	141.244	1038.022958171703	1490.76245232802	-332.5180082432659	921.3643699502329	1278.170828617326	-339.2675636930359	1142.342437063435	1347.128012849457	-328.1467869794117	1120.969754333281	1445.709704085917	-474.6854052444806	1094.272576208987	1433.068433911801	-171.7992573633802	1105.589483318374	1005.245811212476	-464.9675895352682	1075.524028808258	1016.178232224955	-199.7981364226956	890.6623766366531	1033.358240124128	-389.2813600651208	884.5352206709781	1034.657041400323	-357.3998543365821	1032.320850001565	1072.84433485524	-512.1170226586357	985.7130881191405	1086.355762038063	-177.4974773189538	1052.241992243196	890.3683596912907	-554.1694434712086	1182.552827716803	728.8178467462774	-449.7619431440536	1095.986084717577	599.335593276381	-525.966356705236	1102.724050081702	494.260383762625	-521.9404693492735	1117.72825741056	401.490821877349	-479.1377100150236	935.6865927203827	407.191563764636	-519.665756181642	872.3402099568548	285.4477590736691	-469.5989978041564	751.6867422471674	298.8962691982039	-487.8275926391052	792.0179033786787	138.9599347041759	-504.9737444690957	744.1238912803426	158.8140388423327	-540.0439816551291	701.7926812460262	332.4634694096074	-423.7184145851202	974.9869753558795	929.0798567486878	-140.0165941379822	1161.26657263263	742.3111842273055	-225.6019002978855	1076.677011792746	618.7650826290193	-190.7128161898514	1110.191636980303	475.3418329152864	-224.5089272152365	1130.181823505635	404.3788284469658	-291.3095044377671	1008.262018264751	289.1345912586822	-236.9347307986645	1015.6379244429	181.8879165357421	-306.4287041648351	915.422745986819	109.5456733445759	-281.4904806392987	1055.53129651674	61.85900263921695	-279.5026381277434	1013.229600080743	40.81634141314318	-238.381420826424	837.1035511315561	81.07669638969512	-336.7351455801984	
314	141.248	1037.130879600154	1491.726232035785	-332.0743646454687	921.2538785239223	1278.856948829791	-338.0868845477927	1141.927881089833	1348.420498586889	-328.9283589936138	1118.941114884126	1447.362007311515	-475.1413009401118	1095.20248587548	1434.752286519882	-172.1518384305825	1105.155784282287	1007.051142213042	-465.4875024152011	1076.226415181988	1016.699213228789	-200.1737394923937	890.6288690012625	1035.010804372729	-388.2543599255602	884.7105041789895	1036.097479891617	-356.3188605554663	1031.582099085382	1074.723709453639	-511.9223273033268	986.9820298485371	1087.241048797612	-177.2375214478076	1051.038481457624	892.0001635519769	-554.4324682399071	1184.400813479182	731.6144794276642	-449.4980633945589	1100.537561927902	601.5420947246473	-526.2933786722011	1108.709076883499	495.936692840604	-521.8071509300677	1124.569570762157	403.6932141959986	-478.2399845399307	942.718234783959	406.2828702208253	-519.0648031690525	881.0664413153704	283.74997022098	-468.4303371262042	760.1977003701775	294.9487283682041	-486.775496070689	804.6340593655494	136.2955475317935	-504.0790493061183	756.4351548581021	155.0052301628907	-539.3502654911862	709.0609775020075	327.2080572080646	-422.7905292017905	975.5017615694377	929.6362011757633	-139.635095967273	1158.087263141712	739.9102280689591	-226.3733931334307	1071.154528023824	617.9109814316171	-190.8739665043086	1102.141897591368	473.6309397649796	-224.1732363973023	1122.282562926113	402.3794911062198	-291.2519978953933	999.5407594945124	288.2626875621129	-237.2980774217626	1006.292778153563	181.3355212340333	-306.4864902783278	905.5230780775954	109.7566124063963	-281.4819051507031	1045.484361550407	61.70026825561643	-279.5394012157318	1003.171594075563	40.71565211771715	-238.4008392040481	827.0878628534825	81.44115868652329	-336.7425641636269	
315	141.252	1036.181857333169	1492.820959684238	-331.6435608846815	921.2198133482103	1279.648185817776	-336.8588919344635	1141.533113656202	1349.957039803084	-329.7508000278683	1116.814256698716	1449.283208699843	-475.6523960417683	1096.064196476196	1436.712898238349	-172.5125960792421	1104.784947211344	1008.891543549414	-465.9879541744701	1077.083168831989	1017.174820432659	-200.6571666774836	890.6572876330783	1036.767801326649	-387.1225043606584	884.9659419960303	1037.664910644986	-355.1132458962833	1031.096436017769	1076.708180627629	-511.7264861891585	988.5568081852139	1088.095944055962	-176.964845916117	1049.765781978534	893.7753252429725	-554.7379187437544	1186.154965925621	734.6045197615268	-449.3224295334791	1105.016894865303	604.0150485212508	-526.6172228836149	1114.536316147887	497.8861389761132	-521.6110320359548	1131.315952106564	406.1297428306268	-477.2869122384651	949.7102973706261	405.2939428298826	-518.4773482867074	889.9107569922672	281.9630507234399	-467.2088617356665	768.8532213226667	290.7211027241565	-485.7093906164685	817.5151991863402	133.5135538201796	-503.1098101260134	769.0046874822777	151.0017970457947	-538.5685793280377	716.4971083778554	321.618001242708	-421.8552049438338	976.1561858700094	930.234596470675	-139.1868171429308	1154.797785210558	737.6601539435023	-227.3315564220651	1065.470136856283	617.2766778520111	-191.0428044380396	1093.917092733918	472.1751256031957	-223.8899213818102	1114.204077267757	400.6214894157813	-291.3531132572315	990.7528744897741	287.5679106189421	-237.6762659600969	996.9033024653646	180.9113805481476	-306.5824736583368	895.6145285994654	110.040131650164	-281.4769530487588	1035.443143103388	61.56346398417832	-279.6038592289165	993.1157508767808	40.65893450260302	-238.4415443465737	817.0767491873418	81.8780181701641	-336.7419689319735	
316	141.256	1035.186479701384	1494.039551711942	-331.2230434045073	921.2628920947527	1280.542628835623	-335.5824794164615	1141.160344032742	1351.725654886002	-330.6054426363536	1114.597563021331	1451.454270559228	-476.2083376181682	1096.865471925355	1438.930213362447	-172.8826407130772	1104.477821014137	1010.750320163037	-466.4579712444612	1078.081561307135	1017.604579455259	-201.2310204765739	890.7507710154795	1038.618479244738	-385.9049328335102	885.3036516476708	1039.357016018557	-353.8041624184621	1030.850775937618	1078.773680003077	-511.5308282766178	990.4235927879674	1088.921241323321	-176.6778038018758	1048.453065350243	895.6947797739872	-555.0804036967291	1187.806914983161	737.7768171552347	-449.2359187671892	1109.405861860239	606.7447782997959	-526.9322765038976	1120.187646892613	500.1062992756887	-521.352706884995	1137.954191443113	408.7970905328177	-476.2867784064471	956.6567680121967	404.2357583703606	-517.8976515277706	898.873289164639	280.0971184228908	-465.9415824985117	777.6613905354556	286.2270249292201	-484.6273181678447	830.6613781945453	130.6346644079727	-502.0716779726242	781.8372353146572	146.8243219085942	-537.7039351015144	724.1144217966415	315.6997628854792	-420.9088505128294	976.9300835987534	930.8773760659143	-138.687409050255	1151.408736583794	735.595437174378	-228.4655328781724	1059.657751916485	616.8766520923318	-191.2272055192087	1085.561208346989	471.0035526790986	-223.6812268358165	1105.972073658169	399.1345746836694	-291.6122131890422	981.9067469780907	287.0785027322038	-238.0651687162429	987.4787442482068	180.6293546957402	-306.7170787001673	885.7064671488041	110.4087339778736	-281.4728105635119	1025.410066507344	61.44815362784474	-279.6952601580048	983.0634811171456	40.64734854072938	-238.505295235874	807.0783814920385	82.40679952001985	-336.7292859549749	
